<svg preserveAspectRatio="none" overflow="visible" style="display: block;" width="18" height="18" viewBox="0 0 18 18" fill="none" xmlns="http://www.w3.org/2000/svg">
<path id="Subtract" d="M11.7 0C12.5699 0 13.3873 0.164928 14.1521 0.494824C14.9171 0.824824 15.5852 1.27482 16.1552 1.84482C16.7252 2.41482 17.1752 3.08285 17.5052 3.84785C17.8351 4.61275 18 5.43014 18 6.3C18 7.57496 17.6851 8.70002 17.0552 9.675C16.4252 10.65 15.6001 11.4 14.5802 11.925C14.2802 12.51 13.9091 13.0241 13.4666 13.4666C13.0241 13.9091 12.51 14.2802 11.925 14.5802C11.4 15.6001 10.6351 16.4252 9.63018 17.0552C8.62518 17.6852 7.515 18 6.3 18C5.43014 18 4.61275 17.8351 3.84785 17.5052C3.43412 17.3267 3.04966 17.1114 2.69297 16.8627L3.9999 15.5558C4.17318 15.6606 4.35484 15.7552 4.54482 15.8396C5.08482 16.0796 5.67 16.2 6.3 16.2C6.795 16.2 7.2716 16.125 7.7291 15.975C8.18648 15.825 8.61009 15.5999 9 15.3C8.13014 15.3 7.31275 15.1351 6.54785 14.8052C6.13412 14.6267 5.74966 14.4114 5.39297 14.1627L6.69111 12.8646C6.86717 12.9719 7.05146 13.0678 7.24482 13.1511C7.78482 13.3836 8.37 13.5 9 13.5C9.49494 13.5 9.97862 13.425 10.4511 13.275C10.9235 13.125 11.3549 12.9 11.7448 12.6C10.8599 12.6 10.0348 12.4312 9.26982 12.0937C8.50489 11.7563 7.83764 11.3023 7.26768 10.7323C6.69771 10.1624 6.24374 9.49511 5.90625 8.73018C5.56877 7.96523 5.40002 7.14011 5.4 6.25518C5.10004 6.64515 4.87499 7.07647 4.725 7.54893C4.57503 8.02137 4.5 8.50506 4.5 9C4.5 9.63 4.61643 10.2152 4.84893 10.7552C4.98721 11.0763 5.15937 11.373 5.36396 11.6464L4.079 12.9313C3.72447 12.487 3.42875 11.9944 3.19482 11.4521C2.86493 10.6873 2.7 9.86986 2.7 9C2.40007 9.38991 2.175 9.81352 2.025 10.2709C1.875 10.7284 1.8 11.205 1.8 11.7C1.8 12.33 1.92035 12.9152 2.16035 13.4552C2.30182 13.7734 2.47221 14.068 2.671 14.3394L1.379 15.6313C1.02447 15.187 0.728754 14.6944 0.494824 14.1521C0.164928 13.3873 0 12.5699 0 11.7C3.01335e-08 10.485 0.314824 9.37482 0.944824 8.36982C1.57479 7.36489 2.3999 6.59999 3.41982 6.075C3.71982 5.49 4.0909 4.9759 4.5334 4.5334C4.9759 4.0909 5.49 3.71982 6.075 3.41982C6.57 2.39989 7.3279 1.57479 8.34785 0.944824C9.36776 0.314961 10.4851 3.01306e-08 11.7 0ZM10.0687 4.62393C9.23625 4.39143 8.36982 4.43982 7.46982 4.76982C7.37982 5.02482 7.31268 5.27643 7.26768 5.52393C7.22269 5.77138 7.2 6.03005 7.2 6.3C7.2 6.93 7.31643 7.51518 7.54893 8.05518C7.78142 8.59508 8.10721 9.06791 8.52715 9.47285C8.93209 9.89279 9.40492 10.2186 9.94482 10.4511C10.4848 10.6836 11.07 10.8 11.7 10.8C11.9699 10.8 12.2286 10.7773 12.4761 10.7323C12.7236 10.6873 12.9752 10.6202 13.2302 10.5302C13.5602 9.63018 13.6086 8.76375 13.3761 7.93125C13.1436 7.09877 12.7428 6.39714 12.1729 5.82715C11.6029 5.25716 10.9012 4.85643 10.0687 4.62393ZM11.7 1.8C11.175 1.8 10.6836 1.875 10.2261 2.025C9.76868 2.17499 9.3451 2.40008 8.95518 2.7C9.84011 2.70002 10.6652 2.86877 11.4302 3.20625C12.1951 3.54374 12.8624 3.99771 13.4323 4.56768C14.0023 5.13764 14.4563 5.80489 14.7937 6.56982C15.1312 7.33477 15.3 8.15989 15.3 9.04482C15.6 8.65485 15.825 8.22353 15.975 7.75107C16.125 7.27862 16.2 6.79494 16.2 6.3C16.2 5.67 16.0836 5.08482 15.8511 4.54482C15.6186 4.00492 15.2928 3.53209 14.8729 3.12715C14.4679 2.70721 13.9951 2.38142 13.4552 2.14893C12.9152 1.91643 12.33 1.8 11.7 1.8Z" fill="#008C2A"/>
</svg>
