<svg preserveAspectRatio="none" overflow="visible" style="display: block;" width="269" height="65" viewBox="0 0 269 65" fill="none" xmlns="http://www.w3.org/2000/svg">
<path id="Union" d="M33.4839 45.3807C35.3282 45.3807 36.929 45.8289 38.2865 46.7247C39.6697 47.6206 40.6815 48.9771 41.3219 50.7944L38.0178 52.0614C37.6848 51.0631 37.1468 50.2439 36.4039 49.604C35.6611 48.9641 34.6878 48.6441 33.4839 48.6441C32.3057 48.6441 31.3321 48.9641 30.5637 49.604C29.7953 50.2182 29.2319 51.0247 28.8733 52.0228C28.5146 52.9955 28.335 54.045 28.335 55.1712C28.335 56.2974 28.5146 57.3596 28.8733 58.3579C29.2319 59.3561 29.7953 60.1624 30.5637 60.7767C31.3321 61.391 32.3057 61.6983 33.4839 61.6983C34.6878 61.6983 35.6611 61.391 36.4039 60.7767C37.1468 60.1368 37.6848 59.3049 38.0178 58.2811L41.3219 59.5483C40.6815 61.3911 39.6697 62.7604 38.2865 63.6563C36.929 64.5521 35.3282 65 33.4839 65C32.0495 65 30.7684 64.7442 29.6414 64.2322C28.54 63.6947 27.6052 62.9651 26.8367 62.0437C26.0939 61.1222 25.5303 60.0727 25.146 58.8953C24.7618 57.7179 24.5698 56.4766 24.5698 55.1712C24.5698 53.8914 24.7618 52.6628 25.146 51.4854C25.5303 50.308 26.0939 49.2585 26.8367 48.337C27.6052 47.4156 28.54 46.6989 29.6414 46.187C30.7684 45.6495 32.0495 45.3807 33.4839 45.3807ZM51.871 45.3807C53.7152 45.3807 55.3163 45.8289 56.6739 46.7247C58.057 47.6206 59.0686 48.9772 59.7089 50.7944L56.4049 52.0614C56.0719 51.0631 55.5338 50.2439 54.791 49.604C54.0482 48.9641 53.0748 48.6441 51.871 48.6441C50.6927 48.6441 49.7192 48.9641 48.9507 49.604C48.1823 50.2182 47.6189 51.0247 47.2603 52.0228C46.9017 52.9955 46.7221 54.045 46.722 55.1712C46.722 56.2974 46.9017 57.3596 47.2603 58.3579C47.6189 59.3561 48.1823 60.1624 48.9507 60.7767C49.7192 61.391 50.6927 61.6983 51.871 61.6983C53.0748 61.6983 54.0482 61.391 54.791 60.7767C55.5338 60.1368 56.0719 59.3049 56.4049 58.2811L59.7089 59.5483C59.0686 61.3911 58.057 62.7604 56.6739 63.6563C55.3163 64.5521 53.7152 65 51.871 65C50.4366 65 49.1557 64.7441 48.0287 64.2322C46.9272 63.6947 45.9922 62.9651 45.2238 62.0437C44.4809 61.1222 43.9173 60.0727 43.5331 58.8953C43.1489 57.7179 42.9568 56.4766 42.9568 55.1712C42.9568 53.8914 43.1488 52.6628 43.5331 51.4854C43.9173 50.308 44.4809 49.2585 45.2238 48.337C45.9922 47.4156 46.9273 46.6989 48.0287 46.187C49.1557 45.6495 50.4366 45.3807 51.871 45.3807ZM70.0661 45.3807C71.5518 45.3807 72.8326 45.6368 73.9084 46.1487C74.9842 46.6351 75.8681 47.3261 76.5597 48.222C77.2513 49.0922 77.7635 50.0777 78.0965 51.1783C78.4551 52.2789 78.6347 53.4435 78.6347 54.672C78.6347 54.8 78.6218 55.0432 78.5962 55.4016C78.5962 55.7343 78.5703 56.0543 78.5191 56.3614H65.1096C65.1865 58.0507 65.6987 59.3564 66.6464 60.2778C67.6198 61.1737 68.9007 61.6212 70.4887 61.6213C71.5646 61.6213 72.5254 61.4551 73.3707 61.1224C74.216 60.764 74.9973 60.2135 75.7145 59.4713L78.0197 61.8516C77.2769 62.5938 76.5085 63.1956 75.7145 63.6563C74.9461 64.117 74.1262 64.4499 73.2554 64.6546C72.4101 64.885 71.4494 65 70.3736 65C68.8368 65 67.5048 64.7441 66.3777 64.2322C65.2507 63.7203 64.3156 63.0165 63.5728 62.1207C62.83 61.1993 62.2663 60.1624 61.8821 59.0106C61.5235 57.8332 61.3441 56.6045 61.3441 55.3248C61.3442 54.045 61.5235 52.8163 61.8821 51.639C62.2407 50.436 62.7788 49.3735 63.496 48.452C64.2132 47.5051 65.1098 46.7627 66.1856 46.2252C67.287 45.6622 68.5805 45.3807 70.0661 45.3807ZM87.6656 45.3807C89.1256 45.3807 90.4576 45.688 91.6615 46.3023C92.8654 46.891 93.8005 47.7741 94.4664 48.9515L92.1224 50.7559C91.6101 49.9113 90.9443 49.2969 90.1247 48.913C89.3307 48.529 88.4595 48.337 87.5117 48.337C86.6152 48.337 85.8595 48.529 85.2448 48.913C84.6556 49.2713 84.361 49.7706 84.361 50.4105C84.361 50.8712 84.4892 51.2551 84.7453 51.5622C85.0271 51.8437 85.4499 52.0999 86.0134 52.3302C86.6025 52.535 87.3196 52.7397 88.1648 52.9444C88.9588 53.1236 89.7659 53.3412 90.5856 53.5972C91.4052 53.8531 92.161 54.1858 92.8525 54.5953C93.5441 55.0048 94.1078 55.555 94.5433 56.2461C94.9787 56.9372 95.1966 57.8332 95.1966 58.9338C95.1966 60.1368 94.889 61.1993 94.2743 62.1207C93.6595 63.0165 92.8012 63.7203 91.6998 64.2322C90.5984 64.7441 89.3048 65 87.8192 65C86.4872 65 85.3088 64.808 84.2842 64.424C83.2597 64.0145 82.376 63.5028 81.6332 62.8885C80.916 62.2486 80.3397 61.5958 79.9042 60.9303L82.4784 58.7035C82.9651 59.5737 83.6567 60.3289 84.5532 60.9688C85.4753 61.5831 86.577 61.8901 87.8578 61.8901C88.9847 61.8901 89.8684 61.6598 90.5088 61.1991C91.1748 60.7128 91.5079 60.0856 91.5079 59.3177C91.5079 58.7035 91.3027 58.2173 90.8929 57.859C90.483 57.475 89.9452 57.1677 89.2792 56.9374C88.6133 56.6814 87.8831 56.4638 87.0891 56.2846C86.372 56.0799 85.642 55.8496 84.8992 55.5936C84.1564 55.3377 83.4775 55.0177 82.8627 54.6338C82.2736 54.2243 81.7867 53.7123 81.4025 53.098C81.0439 52.4581 80.8645 51.6773 80.8645 50.7559C80.8645 49.1434 81.4794 47.8509 82.7088 46.8783C83.964 45.88 85.6164 45.3807 87.6656 45.3807ZM104.214 45.3807C105.674 45.3807 107.006 45.688 108.21 46.3023C109.414 46.891 110.349 47.7741 111.015 48.9515L108.671 50.7559C108.159 49.9113 107.493 49.2969 106.673 48.913C105.879 48.5291 105.008 48.337 104.06 48.337C103.164 48.337 102.408 48.5291 101.793 48.913C101.204 49.2713 100.91 49.7706 100.91 50.4105C100.91 50.8712 101.038 51.2551 101.294 51.5622C101.576 51.8437 101.998 52.0999 102.562 52.3302C103.151 52.535 103.868 52.7397 104.714 52.9444C105.508 53.1236 106.314 53.3412 107.134 53.5972C107.954 53.8531 108.709 54.1858 109.401 54.5953C110.093 55.0048 110.656 55.5551 111.092 56.2461C111.527 56.9372 111.745 57.8332 111.745 58.9338C111.745 60.1368 111.437 61.1993 110.823 62.1207C110.208 63.0165 109.35 63.7203 108.248 64.2322C107.147 64.7441 105.853 65 104.368 65C103.036 65 101.857 64.808 100.833 64.424C99.8083 64.0145 98.9245 63.5028 98.1816 62.8885C97.4644 62.2486 96.8881 61.5958 96.4526 60.9303L99.0271 58.7035C99.5138 59.5737 100.205 60.3289 101.102 60.9688C102.024 61.5831 103.126 61.8901 104.406 61.8901C105.533 61.8901 106.417 61.6598 107.057 61.1991C107.723 60.7128 108.056 60.0856 108.056 59.3177C108.056 58.7035 107.851 58.2173 107.442 57.859C107.032 57.475 106.494 57.1677 105.828 56.9374C105.162 56.6814 104.432 56.4638 103.638 56.2846C102.92 56.0799 102.19 55.8496 101.448 55.5936C100.705 55.3377 100.026 55.0177 99.4112 54.6338C98.822 54.2243 98.3351 53.7123 97.9509 53.098C97.5923 52.4581 97.4132 51.6773 97.4132 50.7559C97.4132 49.1434 98.0281 47.8509 99.2576 46.8783C100.513 45.88 102.165 45.3807 104.214 45.3807ZM194.094 45.3807C196.63 45.3807 198.59 46.0333 199.973 47.3386C201.382 48.6184 202.086 50.4231 202.087 52.7524V64.6546H198.628L198.386 61.9041C198.365 61.9378 198.343 61.9718 198.321 62.0052C197.655 62.9778 196.822 63.7203 195.823 64.2322C194.85 64.7441 193.749 65 192.519 65C191.11 65 189.868 64.7441 188.792 64.2322C187.716 63.7204 186.884 63.0165 186.295 62.1207C185.706 61.1993 185.411 60.1368 185.411 58.9338C185.411 57.8844 185.629 56.9884 186.064 56.2461C186.499 55.4783 187.063 54.8897 187.754 54.4802C188.395 54.0707 189.125 53.789 189.945 53.6354C190.79 53.4563 191.687 53.3668 192.634 53.3668H198.321V52.7524C198.321 51.4214 197.937 50.3977 197.168 49.681C196.4 48.9643 195.285 48.6059 193.825 48.6059C192.801 48.6059 191.815 48.8106 190.867 49.2201C189.945 49.6296 189.061 50.2951 188.216 51.2165L185.872 48.7979C186.999 47.6206 188.241 46.7628 189.599 46.2252C190.982 45.6621 192.481 45.3807 194.094 45.3807ZM243.852 45.3807C245.338 45.3807 246.619 45.6368 247.694 46.1487C248.77 46.6351 249.654 47.3262 250.345 48.222C251.037 49.0922 251.549 50.0777 251.882 51.1783C252.241 52.2789 252.42 53.4435 252.42 54.672C252.42 54.8 252.407 55.0432 252.382 55.4016C252.382 55.7343 252.356 56.0543 252.305 56.3614H238.895C238.972 58.0507 239.485 59.3564 240.432 60.2778C241.406 61.1736 242.687 61.6213 244.275 61.6213C245.35 61.6213 246.311 61.4551 247.156 61.1224C248.002 60.764 248.783 60.2135 249.5 59.4713L251.806 61.8516C251.063 62.5939 250.294 63.1955 249.5 63.6563C248.732 64.117 247.912 64.4499 247.041 64.6546C246.196 64.885 245.235 65 244.159 65C242.622 65 241.29 64.7441 240.163 64.2322C239.036 63.7203 238.101 63.0166 237.358 62.1207C236.616 61.1993 236.052 60.1624 235.668 59.0106C235.309 57.8332 235.13 56.6045 235.13 55.3248C235.13 54.045 235.309 52.8163 235.668 51.639C236.027 50.436 236.564 49.3735 237.282 48.452C237.999 47.5051 238.896 46.7627 239.971 46.2252C241.073 45.6622 242.366 45.3807 243.852 45.3807ZM181.516 45.3807C182.131 45.3807 182.708 45.4577 183.245 45.6113C183.809 45.7393 184.373 45.9696 184.936 46.3023L183.092 49.681C182.81 49.5274 182.451 49.3992 182.016 49.2969C181.58 49.1945 181.171 49.1436 180.786 49.1436C180.197 49.1436 179.621 49.2457 179.057 49.4504C178.494 49.6552 177.982 49.9881 177.521 50.4488C177.085 50.9095 176.752 51.5112 176.521 52.2534C176.419 52.6117 176.33 53.0851 176.253 53.6737C176.201 54.2368 176.176 55.0178 176.176 56.016V64.6546H172.372V45.7263H176.176V48.566C176.281 48.3943 176.396 48.2282 176.521 48.0682C177.187 47.2235 177.969 46.5709 178.865 46.1102C179.762 45.6239 180.646 45.3807 181.516 45.3807ZM225.908 45.3807C227.496 45.3807 228.764 45.7392 229.712 46.4558C230.685 47.1725 231.39 48.1068 231.825 49.2586C232.287 50.3848 232.517 51.6262 232.517 52.9827V64.6546H228.79V53.9043C228.79 52.8037 228.662 51.8694 228.406 51.1015C228.15 50.3081 227.753 49.7064 227.215 49.2969C226.677 48.8617 225.959 48.6441 225.063 48.6441C224.192 48.6441 223.449 48.8747 222.835 49.3354C222.22 49.7705 221.746 50.436 221.413 51.3318C221.105 52.2277 220.952 53.3411 220.952 54.672V64.6546H217.186V53.6737C217.186 51.9845 216.866 50.7304 216.226 49.9113C215.611 49.0667 214.714 48.6441 213.536 48.6441C212.665 48.6441 211.909 48.8747 211.269 49.3354C210.654 49.7705 210.181 50.436 209.848 51.3318C209.515 52.2277 209.348 53.3411 209.348 54.672V64.6546H205.544V45.7263H209.348V48.6116C209.398 48.5176 209.449 48.4259 209.502 48.337C209.911 47.6459 210.385 47.0828 210.923 46.6477C211.487 46.2126 212.089 45.8926 212.729 45.6878C213.369 45.483 214.023 45.3807 214.689 45.3807C215.79 45.3807 216.776 45.5983 217.647 46.0334C218.544 46.443 219.287 47.0958 219.876 47.9917C220.005 48.174 220.124 48.3687 220.235 48.5758C220.306 48.454 220.378 48.336 220.452 48.222C221.093 47.275 221.861 46.5709 222.757 46.1102C223.68 45.6239 224.73 45.3807 225.908 45.3807ZM23.8222 64.6544H19.557L17.4092 58.7035H6.46214L4.30345 64.6544H0L10.4124 37.8938H13.448L23.8222 64.6544ZM141.44 64.6544H123.392V61.1838H137.684V61.1808H141.44V64.6544ZM171.59 41.3878H157.835V49.2201H169.784V52.7138H157.835V64.6544H153.915V37.8938H171.59V41.3878ZM193.172 56.2081C192.66 56.2081 192.122 56.259 191.558 56.3614C191.021 56.4382 190.559 56.6176 190.175 56.8991C189.868 57.1295 189.624 57.4236 189.445 57.7819C189.266 58.1147 189.176 58.5116 189.176 58.9724C189.176 59.8682 189.522 60.5849 190.214 61.1224C190.905 61.6598 191.828 61.9286 192.98 61.9287C193.954 61.9286 194.837 61.711 195.631 61.2759C196.451 60.8152 197.104 60.2008 197.591 59.433C198.078 58.6396 198.321 57.7437 198.321 56.7456V56.2081H193.172ZM132.185 37.7787C133.824 37.7787 135.245 38.1225 136.448 38.8096C137.677 39.4967 138.637 40.4512 139.328 41.6727C140.019 42.8943 140.365 44.3323 140.365 45.9864C140.365 47.3862 140.109 48.7353 139.597 50.0332C139.11 51.3311 138.419 52.5784 137.523 53.7745C136.627 54.9451 135.59 56.0522 134.413 57.0956C134.178 57.3038 133.938 57.5094 133.696 57.7136H128.611C129.045 57.3656 129.482 57.0071 129.92 56.6379C131.123 55.6454 132.236 54.589 133.26 53.4693C134.284 52.3495 135.104 51.1785 135.718 49.957C136.358 48.71 136.678 47.4374 136.678 46.1395C136.678 44.7397 136.294 43.6072 135.526 42.7419C134.758 41.8511 133.606 41.4053 132.07 41.4053C130.918 41.4053 129.958 41.6731 129.19 42.2075C128.448 42.7419 127.897 43.4673 127.539 44.3834C127.181 45.2996 126.988 46.3176 126.963 47.4373L123.277 47.1701C123.277 45.923 123.469 44.7393 123.853 43.6195C124.236 42.4999 124.8 41.5076 125.542 40.6424C126.31 39.7517 127.245 39.0511 128.345 38.5421C129.472 38.0332 130.752 37.7787 132.185 37.7787ZM7.72942 55.2095H16.1482L11.9495 43.5763L7.72942 55.2095ZM70.1815 48.5291C69.1313 48.5291 68.2347 48.7723 67.4919 49.2586C66.7491 49.7193 66.1728 50.3337 65.7629 51.1015C65.3787 51.8694 65.1482 52.7013 65.0714 53.5972H75.01C75.0181 53.482 75.0229 53.3667 75.0229 53.2515C75.0229 52.6629 74.9203 52.087 74.7154 51.5239C74.5104 50.9608 74.2032 50.4615 73.7933 50.0264C73.3835 49.5657 72.8712 49.2075 72.2565 48.9515C71.6674 48.6699 70.9755 48.5291 70.1815 48.5291ZM243.967 48.5291C242.917 48.5291 242.02 48.7723 241.278 49.2586C240.535 49.7193 239.958 50.3337 239.549 51.1015C239.164 51.8694 238.934 52.7013 238.857 53.5972H248.796C248.804 53.482 248.809 53.3667 248.809 53.2515C248.809 52.6629 248.706 52.087 248.501 51.5239C248.296 50.9608 247.989 50.4615 247.579 50.0264C247.169 49.5657 246.657 49.2074 246.042 48.9515C245.453 48.6699 244.761 48.5291 243.967 48.5291ZM35.0965 7.60198C36.787 7.602 38.2599 8.03722 39.515 8.90745C40.7957 9.7521 41.7819 10.9167 42.4735 12.4012C43.1652 13.8858 43.5109 15.5625 43.5109 17.431C43.5109 19.4275 43.1396 21.1681 42.3967 22.6527C41.6539 24.1116 40.6421 25.2379 39.3614 26.0314C38.0807 26.8248 36.659 27.2213 35.0965 27.2213C33.9694 27.2213 32.9318 27.0039 31.984 26.5688C31.062 26.1337 30.2806 25.532 29.6403 24.7641C29.5032 24.5943 29.3754 24.4176 29.2559 24.2349V34.7082H25.4907V7.94761H29.2559V10.5157C29.3773 10.3278 29.5052 10.1497 29.6403 9.98233C30.3063 9.18891 31.1005 8.60039 32.0226 8.21646C32.9447 7.80694 33.9694 7.60198 35.0965 7.60198ZM55.9598 7.60198C57.6504 7.60198 59.1235 8.03719 60.3786 8.90745C61.6594 9.75211 62.6456 10.9167 63.3372 12.4012C64.0288 13.8858 64.3746 15.5625 64.3746 17.431C64.3746 19.4275 64.0029 21.1681 63.2601 22.6527C62.5173 24.1115 61.5057 25.2379 60.225 26.0314C58.9443 26.8248 57.5224 27.2213 55.9598 27.2213C54.8328 27.2213 53.7954 27.0039 52.8477 26.5688C51.9256 26.1337 51.1443 25.532 50.5039 24.7641C50.3668 24.5943 50.2391 24.4174 50.1196 24.2346V34.7082H46.3541V7.94761H50.1196V10.5157C50.241 10.3278 50.3689 10.1497 50.5039 9.98233C51.1699 9.18891 51.9641 8.60039 52.8862 8.21646C53.8083 7.80696 54.8328 7.60199 55.9598 7.60198ZM264.066 32.7347H261.521L264.798 21.0906H269L264.066 32.7347ZM88.9556 7.60198C90.7742 7.60198 92.3753 8.0243 93.7584 8.86893C95.1417 9.71359 96.2304 10.8784 97.0245 12.3629C97.8441 13.8219 98.2541 15.4985 98.2541 17.3925C98.2541 19.2866 97.8442 20.976 97.0245 22.4606C96.2305 23.9195 95.129 25.0841 93.7202 25.9543C92.337 26.799 90.7486 27.2213 88.9556 27.2213C87.1626 27.2213 85.5615 26.799 84.1527 25.9543C82.7439 25.1097 81.6298 23.9451 80.8101 22.4606C80.016 20.976 79.6188 19.2866 79.6188 17.3925C79.6188 15.4984 80.0161 13.8219 80.8101 12.3629C81.6042 10.8784 82.7056 9.71359 84.1144 8.86893C85.5488 8.02432 87.1626 7.60199 88.9556 7.60198ZM108.905 7.60198C111.441 7.602 113.4 8.25483 114.783 9.56019C116.192 10.84 116.897 12.6444 116.897 14.9736V26.8759H113.438L113.197 24.1253C113.175 24.1591 113.154 24.1933 113.131 24.2267C112.466 25.1993 111.633 25.9416 110.634 26.4535C109.66 26.9654 108.559 27.2213 107.329 27.2213C105.921 27.2213 104.678 26.9654 103.602 26.4535C102.527 25.9416 101.694 25.2378 101.105 24.342C100.516 23.4206 100.221 22.3581 100.221 21.1551C100.221 20.1058 100.439 19.2099 100.874 18.4676C101.31 17.6998 101.873 17.111 102.565 16.7015C103.205 16.292 103.935 16.0105 104.755 15.857C105.6 15.6778 106.497 15.5881 107.445 15.5881H113.131V14.9736C113.131 13.6427 112.747 12.619 111.979 11.9023C111.21 11.1856 110.096 10.8271 108.636 10.8271C107.611 10.8272 106.625 11.0318 105.677 11.4414C104.755 11.8509 103.871 12.5167 103.026 13.4381L100.682 11.0192C101.809 9.84184 103.052 8.98431 104.409 8.44679C105.792 7.88368 107.291 7.60198 108.905 7.60198ZM128.385 7.60198C130.23 7.602 131.831 8.05013 133.188 8.94598C134.571 9.84184 135.583 11.1984 136.224 13.0157L132.919 14.2826C132.586 13.2844 132.048 12.4651 131.305 11.8252C130.562 11.1854 129.589 10.8654 128.385 10.8654C127.207 10.8654 126.233 11.1854 125.465 11.8252C124.697 12.4395 124.133 13.2459 123.774 14.2441C123.416 15.2167 123.236 16.2663 123.236 17.3925C123.236 18.5187 123.416 19.5809 123.774 20.5791C124.133 21.5774 124.697 22.3837 125.465 22.998C126.233 23.6123 127.207 23.9196 128.385 23.9196C129.589 23.9196 130.562 23.6123 131.305 22.998C132.048 22.3581 132.586 21.5262 132.919 20.5024L136.224 21.7696C135.583 23.6125 134.571 24.982 133.188 25.8778C131.831 26.7737 130.23 27.2213 128.385 27.2213C126.951 27.2213 125.67 26.9654 124.543 26.4535C123.442 25.916 122.507 25.1864 121.738 24.265C120.995 23.3435 120.432 22.294 120.047 21.1166C119.663 19.9392 119.471 18.6978 119.471 17.3925C119.471 16.1127 119.663 14.8841 120.047 13.7067C120.432 12.5293 120.995 11.4797 121.738 10.5583C122.507 9.63688 123.442 8.92045 124.543 8.40854C125.67 7.87104 126.951 7.60198 128.385 7.60198ZM228.21 18.6622C228.21 19.793 228.352 20.757 228.635 21.5537C228.917 22.3248 229.354 22.916 229.945 23.3273C230.562 23.7128 231.333 23.9057 232.258 23.9057C233.338 23.9056 234.212 23.6358 234.88 23.0961C235.574 22.5563 236.088 21.7595 236.422 20.7056C236.756 19.6261 236.923 18.2894 236.923 16.6958V7.86619H240.662V26.8743H236.923V24.4002C236.433 25.1144 235.829 25.695 235.111 26.1418C233.954 26.8615 232.644 27.2213 231.179 27.2213C229.765 27.2213 228.545 26.9389 227.517 26.3735C226.514 25.7823 225.743 24.9467 225.203 23.8671C224.689 22.7619 224.432 21.4252 224.432 19.8573V7.86619H228.21V18.6622ZM219.515 21.8229C219.515 22.4911 219.656 22.9795 219.939 23.2879C220.247 23.5706 220.645 23.7122 221.134 23.7122C221.339 23.7122 221.571 23.6991 221.828 23.6734C222.11 23.622 222.393 23.5448 222.676 23.442V26.6423C222.213 26.8479 221.725 26.9892 221.211 27.0664C220.723 27.1691 220.286 27.2207 219.9 27.2207C218.692 27.2207 217.703 26.848 216.932 26.1027C216.161 25.3573 215.775 24.1747 215.775 22.5554V0H219.515V21.8229ZM23.8222 26.8759H19.557L17.4092 20.9248H6.46214L4.30345 26.8759H0L10.4124 0.115028H13.448L23.8222 26.8759ZM76.3629 7.60198C76.9776 7.60199 77.554 7.67901 78.0919 7.83258C78.6554 7.96056 79.219 8.19083 79.7826 8.52357L77.9382 11.9023C77.6565 11.7487 77.2977 11.6205 76.8623 11.5181C76.4269 11.4158 76.0169 11.3649 75.6327 11.3649C75.0437 11.3649 74.4672 11.467 73.9038 11.6717C73.3403 11.8764 72.828 12.2094 72.367 12.6701C71.9315 13.1308 71.5984 13.7324 71.3678 14.4747C71.2654 14.833 71.176 15.3064 71.0991 15.8949C71.0479 16.4581 71.022 17.2391 71.022 18.2373V26.8759H67.2183V7.94761H71.022V10.7873C71.1276 10.6156 71.2428 10.4497 71.3678 10.2897C72.0338 9.44508 72.8151 8.79221 73.7116 8.33149C74.6081 7.84518 75.492 7.60199 76.3629 7.60198ZM142.545 10.5632C142.742 10.2551 142.959 9.97187 143.198 9.71375C143.864 9.02266 144.62 8.49776 145.465 8.13941C146.336 7.78107 147.259 7.60198 148.232 7.60198C150.332 7.602 151.972 8.21634 153.15 9.44489C154.354 10.6479 154.956 12.4141 154.956 14.7433V26.8759H151.191V16.1255C151.191 14.3083 150.857 12.9773 150.191 12.1326C149.551 11.2879 148.552 10.8654 147.194 10.8654C145.683 10.8654 144.531 11.4033 143.737 12.4783C142.943 13.5277 142.545 15.2169 142.545 17.5461V26.8759H138.742V0.115028H142.545V10.5632ZM183.705 26.8759H165.657V23.4054H179.949V23.4021H183.705V26.8759ZM251.986 14.7679L256.689 7.86619H261.2L254.415 17.3124L261.2 26.8743H256.612L251.986 19.8958L247.244 26.8743H242.772L249.48 17.3124L242.772 7.86619H247.321L251.986 14.7679ZM213.675 3.5085H199.874V11.3739H211.863V14.8829H199.874V26.8735H195.942V0H213.675V3.5085ZM107.983 18.4294C107.47 18.4294 106.932 18.4803 106.369 18.5827C105.831 18.6595 105.37 18.8389 104.985 19.1204C104.678 19.3507 104.435 19.645 104.256 20.0032C104.076 20.3359 103.987 20.7329 103.987 21.1936C103.987 22.0894 104.332 22.8061 105.024 23.3436C105.716 23.8811 106.638 24.1499 107.79 24.1499C108.764 24.1499 109.648 23.9323 110.442 23.4972C111.261 23.0365 111.915 22.4221 112.401 21.6543C112.888 20.8609 113.131 19.965 113.131 18.9668V18.4294H107.983ZM88.9556 10.9039C87.803 10.9039 86.804 11.1727 85.9588 11.7102C85.1391 12.2477 84.4987 13.0029 84.0376 13.9755C83.6022 14.9226 83.3843 16.0616 83.3843 17.3925C83.3843 18.6979 83.6022 19.8371 84.0376 20.8097C84.4987 21.7823 85.1391 22.5376 85.9588 23.0751C86.804 23.6125 87.803 23.8811 88.9556 23.8811C90.0826 23.8811 91.0562 23.6125 91.8758 23.0751C92.7211 22.5376 93.3615 21.7823 93.797 20.8097C94.2581 19.8371 94.4886 18.6979 94.4886 17.3925C94.4886 16.0615 94.2581 14.9096 93.797 13.937C93.3615 12.9644 92.7211 12.2221 91.8758 11.7102C91.0562 11.1727 90.0826 10.9039 88.9556 10.9039ZM34.2895 11.0575C33.2138 11.0575 32.266 11.3263 31.4464 11.8638C30.6523 12.4013 30.0245 13.1564 29.5635 14.1291C29.128 15.0761 28.9104 16.1768 28.9104 17.431C28.9104 18.6852 29.128 19.7986 29.5635 20.7712C30.0245 21.7183 30.6523 22.4605 31.4464 22.998C32.266 23.5099 33.2137 23.766 34.2895 23.7661C35.391 23.766 36.3389 23.5099 37.133 22.998C37.9526 22.4605 38.5928 21.7182 39.0539 20.7712C39.5149 19.7986 39.7454 18.6852 39.7454 17.431C39.7454 16.1768 39.5149 15.0761 39.0539 14.1291C38.5928 13.1565 37.9526 12.4013 37.133 11.8638C36.3389 11.3263 35.391 11.0575 34.2895 11.0575ZM55.1532 11.0575C54.0773 11.0575 53.1294 11.3263 52.3097 11.8638C51.5157 12.4013 50.8882 13.1565 50.4271 14.1291C49.9917 15.0761 49.7738 16.1768 49.7738 17.431C49.7738 18.6852 49.9917 19.7986 50.4271 20.7712C50.8882 21.7182 51.5157 22.4605 52.3097 22.998C53.1294 23.5099 54.0773 23.7661 55.1532 23.7661C56.2545 23.766 57.2023 23.5099 57.9963 22.998C58.816 22.4605 59.4564 21.7182 59.9175 20.7712C60.3786 19.7986 60.6091 18.6852 60.6091 17.431C60.6091 16.1768 60.3786 15.0761 59.9175 14.1291C59.4564 13.1565 58.816 12.4013 57.9963 11.8638C57.2023 11.3263 56.2545 11.0575 55.1532 11.0575ZM174.451 0C176.089 2.42587e-05 177.51 0.343755 178.713 1.03088C179.942 1.718 180.902 2.67256 181.593 3.89402C182.284 5.11556 182.63 6.5536 182.63 8.20772C182.63 9.6075 182.374 10.9568 181.862 12.2548C181.376 13.5526 180.684 14.7997 179.788 15.9958C178.892 17.1664 177.856 18.2735 176.678 19.3168C176.443 19.5251 176.203 19.7307 175.961 19.9349H170.876C171.311 19.5868 171.747 19.2284 172.185 18.8592C173.388 17.8667 174.502 16.8103 175.526 15.6906C176.55 14.5709 177.369 13.4 177.983 12.1785C178.623 10.9315 178.944 9.65866 178.944 8.36073C178.944 6.96105 178.56 5.82844 177.792 4.96316C177.024 4.07243 175.872 3.62685 174.336 3.62681C173.184 3.62682 172.224 3.89436 171.456 4.42873C170.713 4.96317 170.163 5.68851 169.804 6.6047C169.446 7.52083 169.254 8.53886 169.228 9.65855L165.542 9.39161C165.542 8.14454 165.734 6.96058 166.118 5.84076C166.502 4.72113 167.065 3.72889 167.808 2.86369C168.576 1.97296 169.51 1.27267 170.611 0.763668C171.737 0.254697 173.017 1.93845e-05 174.451 0ZM7.72942 17.431H16.1482L11.9495 5.79759L7.72942 17.431Z" fill="black"/>
</svg>
